<svg xmlns="http://www.w3.org/2000/svg" xmlns:xlink="http://www.w3.org/1999/xlink" width="387.91" height="280.909" viewBox="0 0 387.91 280.909">
  <defs>
    <clipPath id="clip-path">
      <rect id="Rectangle_2155" data-name="Rectangle 2155" width="230" height="228" transform="translate(55.67 159)" fill="none"/>
    </clipPath>
    <clipPath id="clip-path-2">
      <path id="Path_51885" data-name="Path 51885" d="M224.07,184.9s25.61,30.42,31,36,5.59,9.63,3.85,12.13-14.82,7.13-28.3,15.79-51.8,31-52.18,31.78-4.05-27-4.05-27l64.12-26.38-.19-1.93-20.8-38.51Z" fill="#fff" stroke="#263238" stroke-linecap="round" stroke-linejoin="round" stroke-width="0.75"/>
    </clipPath>
    <clipPath id="clip-path-3">
      <path id="Path_51895" data-name="Path 51895" d="M157.76,389.39c10.46-1.76,23.86-8.95,27.85-18-3-15.69-6.79-37.79-6.79-51.31,0-22.72,6-35.62,3.27-51s-8.47-25.41-14.63-29.46c0,0-9.43,2.5-19.06,11.55s-18.1,24.61-21.4,39.44-7.7,60.46-7.7,72.4-.86,26.76-.86,26.76h34.59A26.46,26.46,0,0,0,157.76,389.39Z" fill="#fff" stroke="#263238" stroke-linecap="round" stroke-linejoin="round" stroke-width="0.75"/>
    </clipPath>
    <clipPath id="clip-path-4">
      <path id="Path_51905" data-name="Path 51905" d="M179.78,214.93s.58,7.51,1.16,11.17-8.47,13.9-8.47,13.9l13.09,19.83,14.83-11.55s21-1.54,22.91-3.28,1.93-20.79,1.93-20.79l5-2.89s-4.62-20-5.77-24.46l-1.16-4.42s6.74-2.32,5.2-9-11.36-10-21.18-8.48-12.32,5.2-12.32,5.2-13.87-.19-21.76,6.36-3.08,16.94-.58,20.6a57.229,57.229,0,0,0,7.12,7.81Z" fill="#fff" stroke="#263238" stroke-linecap="round" stroke-linejoin="round" stroke-width="0.75"/>
    </clipPath>
    <clipPath id="clip-path-5">
      <path id="Path_51912" data-name="Path 51912" d="M194.8,224.56s-1.15-12.13-7.12-12.51-5.78,8.28-4,14.25,6,7.89,9.43,4.81" fill="#0f3295" stroke="#263238" stroke-linecap="round" stroke-linejoin="round" stroke-width="0.75"/>
    </clipPath>
    <clipPath id="clip-path-6">
      <path id="Path_51917" data-name="Path 51917" d="M173,232.65l19.26,29.27-8.86,11.36a223.779,223.779,0,0,0-13.28-22.34c-6.55-9.24-7.32-10.78-7.32-10.78Z" fill="#fff" stroke="#263238" stroke-linecap="round" stroke-linejoin="round" stroke-width="0.75"/>
    </clipPath>
    <clipPath id="clip-path-7">
      <path id="Path_51923" data-name="Path 51923" d="M167.85,296.77s-5.59-23.3-7.9-28.5-15.4-10-21.76,1.35-.58,24.26,1.74,33.5,16.94,51,19.06,56.23,6,4,8.09,3.47,60.65-47.76,60.65-47.76l-4.62-10.39L177.67,328Z" fill="#fff" stroke="#263238" stroke-linecap="round" stroke-linejoin="round" stroke-width="0.75"/>
    </clipPath>
  </defs>
  <g id="no-data" transform="translate(-55.67 -113.346)">
    <g id="freepik--background-simple--inject-34">
      <path id="Path_51795" data-name="Path 51795" d="M429.84,253.51c-3.39-27-11.87-53.07-22-71.76-24.47-44.91-92.64-74.95-144-67.18-43.81,6.62-64.86,46.59-104.36,60.46-36.34,12.76-69.06,22.61-86.19,56.28C37,302.43,125.71,380.18,201.74,374.12c24-1.92,45.44-11.15,70.07-6.82,50,8.79,66.6,18.24,110.76.66C426.08,350.63,435.77,300.74,429.84,253.51Z" fill="#0f3295"/>
      <path id="Path_51796" data-name="Path 51796" d="M429.84,253.51c-3.39-27-11.87-53.07-22-71.76-24.47-44.91-92.64-74.95-144-67.18-43.81,6.62-64.86,46.59-104.36,60.46-36.34,12.76-69.06,22.61-86.19,56.28C37,302.43,125.71,380.18,201.74,374.12c24-1.92,45.44-11.15,70.07-6.82,50,8.79,66.6,18.24,110.76.66C426.08,350.63,435.77,300.74,429.84,253.51Z" fill="#fff" opacity="0.8"/>
    </g>
    <g id="freepik--Device--inject-34">
      <path id="Path_51797" data-name="Path 51797" d="M254.91,389.43l-42.65-95.5H315.61L443.06,378" fill="#fff" stroke="#263238" stroke-linecap="round" stroke-linejoin="round" stroke-width="0.75"/>
      <path id="Path_51798" data-name="Path 51798" d="M244.33,385.67,212.26,300.3v-6.37l45.37,99.95Z" fill="#263238" stroke="#263238" stroke-linecap="round" stroke-linejoin="round" stroke-width="0.75"/>
      <path id="Path_51799" data-name="Path 51799" d="M271.35,297.88l43.96,51.53-53.36,12.43-30.32-57.6Z" fill="#fff" stroke="#263238" stroke-linecap="round" stroke-linejoin="round" stroke-width="0.75"/>
      <path id="Path_51800" data-name="Path 51800" d="M261.95,361.84v1.52l52.45-10.61.91-3.34Z" fill="#263238" stroke="#263238" stroke-linecap="round" stroke-linejoin="round" stroke-width="0.75"/>
      <path id="Path_51801" data-name="Path 51801" d="M269.69,316.42l2.25,3.32,5.72-1.55-2.38-3.24Z" fill="#263238"/>
      <path id="Path_51802" data-name="Path 51802" d="M291.34,336.73l-2.72-3.68-6.5,1.75,2.54,3.76Z" fill="#263238"/>
      <path id="Path_51803" data-name="Path 51803" d="M265.02,309.5l1.67,2.48,5.38-1.37-1.69-2.3Z" fill="#263238"/>
      <path id="Path_51804" data-name="Path 51804" d="M275.38,324.83l3.08,4.56,6.29-1.59-3.4-4.61Z" fill="#263238"/>
      <path id="Path_51805" data-name="Path 51805" d="M291.67,326.97l-5.39,1.37,2.7,3.66,5.49-1.48Z" fill="#263238"/>
      <path id="Path_51806" data-name="Path 51806" d="M279.01,330.19l2.57,3.82,6.46-1.75-2.71-3.68Z" fill="#263238"/>
      <path id="Path_51807" data-name="Path 51807" d="M258.93,310.85l1.66,2.68,5.16-1.32-1.69-2.5Z" fill="#263238"/>
      <path id="Path_51808" data-name="Path 51808" d="M272.47,320.53l2.38,3.51,5.92-1.64-2.53-3.43Z" fill="#263238"/>
      <path id="Path_51809" data-name="Path 51809" d="M267.23,312.77l1.92,2.85,5.54-1.46-2.04-2.77Z" fill="#263238"/>
      <path id="Path_51810" data-name="Path 51810" d="M255.59,319.2l-1.68-3.03-6.13,1.56,1.71,3.08Z" fill="#263238"/>
      <path id="Path_51811" data-name="Path 51811" d="M246.78,326.53l4.21-1.13-1.95-3.52-4.14,1.09Z" fill="#263238"/>
      <path id="Path_51812" data-name="Path 51812" d="M257.11,307.91l1.31,2.12,5.09-1.13-1.37-2.02Z" fill="#263238"/>
      <path id="Path_51813" data-name="Path 51813" d="M253.45,315.34l-1.62-2.92-6.23,1.37,1.72,3.11Z" fill="#263238"/>
      <path id="Path_51814" data-name="Path 51814" d="M251.06,309.14l1.24,2.24,5.18-1.14-1.33-2.14Z" fill="#263238"/>
      <path id="Path_51815" data-name="Path 51815" d="M242.35,318.17l4.06-1.04L244.67,314l-4.05.89Z" fill="#263238"/>
      <path id="Path_51816" data-name="Path 51816" d="M243.84,310.62l1.3,2.34,6.23-1.37-1.25-2.26Z" fill="#263238"/>
      <path id="Path_51817" data-name="Path 51817" d="M263.41,318.08l2.1,3.39,5.5-1.48-2.25-3.32Z" fill="#263238"/>
      <path id="Path_51818" data-name="Path 51818" d="M277.53,329.63l-3.07-4.54-5.73,1.58,2.78,4.49Z" fill="#263238"/>
      <path id="Path_51819" data-name="Path 51819" d="M252.76,312.21l1.6,2.9,5.3-1.35-1.67-2.7Z" fill="#263238"/>
      <path id="Path_51820" data-name="Path 51820" d="M253.96,330.74l-4.32,1.19,2.24,4.23,4.45-1.13Z" fill="#263238"/>
      <path id="Path_51821" data-name="Path 51821" d="M266.01,322.28l2.22,3.58,5.69-1.56-2.37-3.52Z" fill="#263238"/>
      <path id="Path_51822" data-name="Path 51822" d="M261.99,317.52l-1.83-2.95-5.34,1.36,1.68,3.04Z" fill="#263238"/>
      <path id="Path_51823" data-name="Path 51823" d="M272.02,348.87l-6.11,1.56,2.18,3.93,6.13-1.51Z" fill="#263238"/>
      <path id="Path_51824" data-name="Path 51824" d="M262.56,305.87l5.23-1.07-2.81-3.82-5.15.85Z" fill="#263238"/>
      <path id="Path_51825" data-name="Path 51825" d="M249.66,308.5l-2.53-4.57-6.41,1.06,2.66,4.8Z" fill="#263238"/>
      <path id="Path_51826" data-name="Path 51826" d="M257.98,323.51l-1.93-3.49-6.1,1.61,1.95,3.52Z" fill="#263238"/>
      <path id="Path_51827" data-name="Path 51827" d="M273.55,336.18l-2.46-3.97-6.36,1.62,2.28,4.12Z" fill="#263238"/>
      <path id="Path_51828" data-name="Path 51828" d="M270.59,331.4l-2.78-4.48-5.99,1.65,2.45,4.43Z" fill="#263238"/>
      <path id="Path_51829" data-name="Path 51829" d="M280.65,334.26l-2.58-3.83-6.06,1.54,2.46,3.96Z" fill="#263238"/>
      <path id="Path_51830" data-name="Path 51830" d="M264.59,321.72l-2.1-3.4-5.54,1.47,1.93,3.47Z" fill="#263238"/>
      <path id="Path_51831" data-name="Path 51831" d="M261.09,314.34l1.82,2.93,5.31-1.4-1.93-2.86Z" fill="#263238"/>
      <path id="Path_51832" data-name="Path 51832" d="M267.31,326.12l-2.22-3.59-5.76,1.55,2.04,3.68Z" fill="#263238"/>
      <path id="Path_51833" data-name="Path 51833" d="M283.74,338.82l-2.55-3.76-6.22,1.68,2.37,3.83Z" fill="#263238"/>
      <path id="Path_51834" data-name="Path 51834" d="M279.63,345.99l-2.71-4.37-6.84,1.88,2.4,4.31Z" fill="#263238"/>
      <path id="Path_51835" data-name="Path 51835" d="M259.13,340.08l-2.34-4.23-4.47,1.14,2.28,4.32Z" fill="#263238"/>
      <path id="Path_51836" data-name="Path 51836" d="M251.45,326.22l-4.23,1.14,1.99,3.75,4.29-1.18Z" fill="#263238"/>
      <path id="Path_51837" data-name="Path 51837" d="M271.56,348.05l-2.38-4.31-6.06,1.66,2.33,4.2Z" fill="#263238"/>
      <path id="Path_51838" data-name="Path 51838" d="M260.46,328l-2.03-3.67-6.08,1.64,2.06,3.71Z" fill="#263238"/>
      <path id="Path_51839" data-name="Path 51839" d="M263.11,306.68l1.36,2.01,5.32-1.18-1.41-1.91Z" fill="#263238"/>
      <path id="Path_51840" data-name="Path 51840" d="M240.18,314.06l4.03-.89-1.3-2.36-4.02.82Z" fill="#263238"/>
      <path id="Path_51841" data-name="Path 51841" d="M256.59,307.08l5-1.02-2.75-4.07-4.9.81Z" fill="#263238"/>
      <path id="Path_51842" data-name="Path 51842" d="M250.6,308.31l5.05-1.03-2.68-4.32-4.89.81Z" fill="#263238"/>
      <path id="Path_51843" data-name="Path 51843" d="M248.59,321.06l-1.72-3.1L242.79,319l1.67,3.14Z" fill="#263238"/>
      <path id="Path_51844" data-name="Path 51844" d="M268.77,304.6l4.52-.93-2.84-3.59-4.47.73Z" fill="#263238"/>
      <path id="Path_51845" data-name="Path 51845" d="M242.44,309.98l-2.68-4.84-3.96.66,2.65,4.99Z" fill="#263238"/>
      <path id="Path_51846" data-name="Path 51846" d="M265,350.66l-4.8,1.22,2.08,3.92,4.9-1.21Z" fill="#263238"/>
      <path id="Path_51847" data-name="Path 51847" d="M287.81,344.84l-6.76,1.72,2.47,3.99,6.98-1.73Z" fill="#263238"/>
      <path id="Path_51848" data-name="Path 51848" d="M280.13,346.8l-7.2,1.83,2.21,3.99,7.45-1.84Z" fill="#263238"/>
      <path id="Path_51849" data-name="Path 51849" d="M295.81,342.8l-7.06,1.8,2.69,3.99,7.31-1.81Z" fill="#263238"/>
      <path id="Path_51850" data-name="Path 51850" d="M302.76,341.03l-6,1.53,2.95,3.99,6.2-1.54Z" fill="#263238"/>
      <path id="Path_51851" data-name="Path 51851" d="M262.22,345.65l-4.65,1.27,2.19,4.14,4.78-1.22Z" fill="#263238"/>
      <path id="Path_51852" data-name="Path 51852" d="M276.42,340.82l-2.37-3.83-6.58,1.78,2.16,3.91Z" fill="#263238"/>
      <path id="Path_51853" data-name="Path 51853" d="M287.27,344.04l-3-4.43-6.43,1.76,2.71,4.38Z" fill="#263238"/>
      <path id="Path_51854" data-name="Path 51854" d="M268.73,342.92l-2.17-3.91-6.07,1.65,2.18,3.92Z" fill="#263238"/>
      <path id="Path_51855" data-name="Path 51855" d="M257.14,346.1l4.63-1.27-2.18-3.93-4.55,1.23Z" fill="#263238"/>
      <path id="Path_51856" data-name="Path 51856" d="M263.36,333.24l-2.44-4.42-6.06,1.67,2.38,4.3Z" fill="#263238"/>
      <path id="Path_51857" data-name="Path 51857" d="M295.23,342.01l-3.31-4.49-6.72,1.84,3.01,4.44Z" fill="#263238"/>
      <path id="Path_51858" data-name="Path 51858" d="M266.11,338.19l-2.29-4.13-6.12,1.56,2.34,4.22Z" fill="#263238"/>
      <path id="Path_51859" data-name="Path 51859" d="M282.29,322.93l3.41,4.62,5.35-1.36-3.68-4.66Z" fill="#263238"/>
      <path id="Path_51860" data-name="Path 51860" d="M275.64,313.91l4.74-1.25-2.13-2.69-4.64,1.18Z" fill="#263238"/>
      <path id="Path_51861" data-name="Path 51861" d="M271.36,308.1l1.66,2.26,4.62-1.17-1.67-2.11Z" fill="#263238"/>
      <path id="Path_51862" data-name="Path 51862" d="M302.14,340.25l-3.58-4.55-5.7,1.56,3.32,4.51Z" fill="#263238"/>
      <path id="Path_51863" data-name="Path 51863" d="M276.22,314.7l2.39,3.23,4.88-1.32-2.5-3.17Z" fill="#263238"/>
      <path id="Path_51864" data-name="Path 51864" d="M289.56,332.79l2.72,3.69,5.67-1.55-2.87-3.63Z" fill="#263238"/>
      <path id="Path_51865" data-name="Path 51865" d="M270.76,307.3l4.59-1.01-1.43-1.82-4.55.93Z" fill="#263238"/>
      <path id="Path_51866" data-name="Path 51866" d="M281.71,322.15l5.05-1.4-2.65-3.36-4.92,1.33Z" fill="#263238"/>
      <path id="Path_51867" data-name="Path 51867" d="M322.28,303.64v8.18a16,16,0,0,1-2.73,2.12c-1.51.91-13.94,3-13.94,3l15.76,17.29s14.45-1.58,18.5-2.73c4.24-1.22,3.33-16.68,3.33-16.68Z" fill="#fff" stroke="#263238" stroke-linecap="round" stroke-linejoin="round" stroke-width="0.75"/>
      <path id="Path_51868" data-name="Path 51868" d="M322.28,303.64v8.18s-.22.22-.58.54l18.43,19.06c3.94-1.77,3.07-16.57,3.07-16.57Z" fill="#263238" stroke="#263238" stroke-linecap="round" stroke-linejoin="round" stroke-width="0.75"/>
      <path id="Path_51869" data-name="Path 51869" d="M294.39,199.04v86.71l66.09,52.14v-134Z" fill="#fff" stroke="#263238" stroke-linecap="round" stroke-linejoin="round" stroke-width="0.75"/>
      <path id="Path_51870" data-name="Path 51870" d="M298.94,203.59v73.06l55.48,34.26V208.44Z" fill="#0f3295" stroke="#263238" stroke-linecap="round" stroke-linejoin="round" stroke-width="0.75"/>
      <rect id="Rectangle_2147" data-name="Rectangle 2147" width="6.67" height="134.03" transform="translate(360.48 203.89)" fill="#263238" stroke="#263238" stroke-linecap="round" stroke-linejoin="round" stroke-width="0.75"/>
      <path id="Path_51871" data-name="Path 51871" d="M302.58,208.14l.3,65.18,46.38,26.37V218.98l-31.83-4.82-2.12-4.51Z" fill="#fff" stroke="#263238" stroke-linecap="round" stroke-linejoin="round" stroke-width="0.75"/>
      <path id="Path_51872" data-name="Path 51872" d="M305.61,216.02V271.5l40.93,21.83V223.3Z" fill="#0f3295" stroke="#263238" stroke-linecap="round" stroke-linejoin="round" stroke-width="0.75"/>
      <ellipse id="Ellipse_425" data-name="Ellipse 425" cx="11.03" cy="15.2" rx="11.03" ry="15.2" transform="translate(309.416 244.863) rotate(-18.56)" fill="#263238"/>
      <path id="Path_51873" data-name="Path 51873" d="M325.92,256.67l3.89-4.31a2.21,2.21,0,0,0-.07-2.59c-.58-.83-1.49-1-2-.41L324,253.51l-3.75-6c-.54-.87-1.45-1.14-2-.6a2.11,2.11,0,0,0-.08,2.55l3.89,6.25L318.1,260a2.2,2.2,0,0,0,.08,2.59,1.68,1.68,0,0,0,1,.73,1,1,0,0,0,1-.32l3.75-4.15,3.74,6a1.79,1.79,0,0,0,1.06.84,1,1,0,0,0,1-.24,2.12,2.12,0,0,0,.07-2.55Z" fill="#fff"/>
      <line id="Line_710" data-name="Line 710" x2="22.92" y2="6.73" transform="translate(312.88 234.82)" fill="none" stroke="#263238" stroke-linecap="round" stroke-linejoin="round" stroke-width="0.75"/>
      <line id="Line_711" data-name="Line 711" x2="29.71" y2="8.29" transform="translate(311.97 228.45)" fill="none" stroke="#263238" stroke-linecap="round" stroke-linejoin="round" stroke-width="0.75"/>
      <path id="Path_51874" data-name="Path 51874" d="M332.45,371.31s-14.49,1.34-19.85,5.63-1.34,6.44,3.75,7.78,27.9-.81,30.85-3.76S347.2,370.77,332.45,371.31Z" fill="#fff" stroke="#263238" stroke-linecap="round" stroke-linejoin="round" stroke-width="0.75"/>
      <path id="Path_51875" data-name="Path 51875" d="M347.2,381a3.46,3.46,0,0,0,1-2.12c-6.49-.32-15,1.56-22.73,4a81.068,81.068,0,0,1-7.94,2.09C324.27,385.78,344.44,383.72,347.2,381Z" fill="#263238" stroke="#263238" stroke-linecap="round" stroke-linejoin="round" stroke-width="0.75"/>
      <line id="Line_712" data-name="Line 712" x2="10.59" y2="5.51" transform="translate(281.08 212.16)" fill="none" stroke="#263238" stroke-linecap="round" stroke-linejoin="round" stroke-width="1"/>
      <line id="Line_713" data-name="Line 713" x2="3.15" y2="1.64" transform="translate(275 209)" fill="none" stroke="#263238" stroke-linecap="round" stroke-linejoin="round" stroke-width="1"/>
      <line id="Line_714" data-name="Line 714" x2="3.59" y2="0.41" transform="translate(283.41 239.92)" fill="none" stroke="#263238" stroke-linecap="round" stroke-linejoin="round" stroke-width="1"/>
      <line id="Line_715" data-name="Line 715" x2="9.68" y2="1.12" transform="translate(269.67 238.33)" fill="none" stroke="#263238" stroke-linecap="round" stroke-linejoin="round" stroke-width="1"/>
      <line id="Line_716" data-name="Line 716" x1="12" y2="3.33" transform="translate(273.67 265.67)" fill="none" stroke="#263238" stroke-linecap="round" stroke-linejoin="round" stroke-width="1"/>
    </g>
    <g id="freepik--Clock--inject-34">
      <path id="Path_51876" data-name="Path 51876" d="M270.18,119a28.7,28.7,0,1,0,28.7,28.7,28.7,28.7,0,0,0-28.7-28.7Zm0,51.76a9.557,9.557,0,1,1,0,.03Z" fill="#263238"/>
      <path id="Path_51877" data-name="Path 51877" d="M272.23,147.73a2.05,2.05,0,1,1-2.05-2,2.05,2.05,0,0,1,2.05,2Z" fill="#263238"/>
      <path id="Path_51878" data-name="Path 51878" d="M263.31,158.14l6.87-10.41,11.61,9.61" fill="none" stroke="#263238" stroke-linecap="round" stroke-linejoin="round" stroke-width="1"/>
    </g>
    <g id="freepik--file-cabinet--inject-34">
      <path id="Path_51879" data-name="Path 51879" d="M117.88,169.73l-3.45-9.43,1.84,2.07v-3.22l3.91,5.98-3.45-21.39,4.6,11.73.46-10.35.69,3.45.92-11.73,1.61,17.94,2.3-6.21-.46,8.05,6.21-18.4-2.99,23,4.37-3.22-2.53,4.14,3.22-2.3-3.67,10.58-13.35.23" fill="#0f3295"/>
      <path id="Path_51880" data-name="Path 51880" d="M132.64,192.96H118.26l-3.88-24.92h22.13Z" fill="#263238" stroke="#263238" stroke-linecap="round" stroke-linejoin="round" stroke-width="1"/>
      <rect id="Rectangle_2148" data-name="Rectangle 2148" width="72.59" height="193.11" transform="translate(99.42 192.79)" fill="#fff" stroke="#263238" stroke-linecap="round" stroke-linejoin="round" stroke-width="1"/>
      <rect id="Rectangle_2149" data-name="Rectangle 2149" width="63.43" height="46.51" transform="translate(103.64 199.13)" fill="none" stroke="#263238" stroke-linecap="round" stroke-linejoin="round" stroke-width="1"/>
      <rect id="Rectangle_2150" data-name="Rectangle 2150" width="25.37" height="8.46" transform="translate(122.67 218.16)" fill="#263238"/>
      <rect id="Rectangle_2151" data-name="Rectangle 2151" width="63.43" height="46.51" transform="translate(103.64 253.4)" fill="none" stroke="#263238" stroke-linecap="round" stroke-linejoin="round" stroke-width="1"/>
      <rect id="Rectangle_2152" data-name="Rectangle 2152" width="25.37" height="8.46" transform="translate(122.67 272.43)" fill="#263238"/>
      <rect id="Rectangle_2153" data-name="Rectangle 2153" width="63.43" height="46.51" transform="translate(103.64 307.66)" fill="none" stroke="#263238" stroke-linecap="round" stroke-linejoin="round" stroke-width="1"/>
      <rect id="Rectangle_2154" data-name="Rectangle 2154" width="25.37" height="8.46" transform="translate(122.67 326.69)" fill="#263238"/>
    </g>
    <g id="freepik--Character--inject-34">
      <g id="Group_8410" data-name="Group 8410" clip-path="url(#clip-path)">
        <path id="Path_51881" data-name="Path 51881" d="M179.79,374.88s36.38-16.07,55.94-17.28L250,389.13H142.22Z" fill="#263238" stroke="#263238" stroke-linecap="round" stroke-linejoin="round" stroke-width="0.75"/>
        <path id="Path_51882" data-name="Path 51882" d="M224.07,184.9s25.61,30.42,31,36,5.59,9.63,3.85,12.13-14.82,7.13-28.3,15.79-51.8,31-52.18,31.78-4.05-27-4.05-27l64.12-26.38-.19-1.93-20.8-38.51Z" fill="#fff"/>
        <g id="Group_8404" data-name="Group 8404" clip-path="url(#clip-path-2)">
          <path id="Path_51883" data-name="Path 51883" d="M248.72,229.8,219,186.4l-1.43.42,20.8,38.51.19,1.93-64.12,26.38s.07.48.17,1.29l4.18,9.59Z" fill="#0f3295"/>
          <path id="Path_51884" data-name="Path 51884" d="M248.72,229.8,219,186.4l-1.43.42,20.8,38.51.19,1.93-64.12,26.38s.07.48.17,1.29l4.18,9.59Z" fill="#fff" opacity="0.5"/>
        </g>
        <path id="Path_51886" data-name="Path 51886" d="M224.07,184.9s25.61,30.42,31,36,5.59,9.63,3.85,12.13-14.82,7.13-28.3,15.79-51.8,31-52.18,31.78-4.05-27-4.05-27l64.12-26.38-.19-1.93-20.8-38.51Z" fill="none" stroke="#263238" stroke-linecap="round" stroke-linejoin="round" stroke-width="0.75"/>
        <path id="Path_51887" data-name="Path 51887" d="M203.66,171.61s-3.08-2.7-4.62,0-1.73,7.12-.77,7.51,4.81-.19,5.39-1.35S203.66,171.61,203.66,171.61Z" fill="#fff" stroke="#263238" stroke-linecap="round" stroke-linejoin="round" stroke-width="0.75"/>
        <path id="Path_51888" data-name="Path 51888" d="M209.05,170.26s-3.27-3.46-5.39-2.12-1.54,8.67-.77,9.25,5.39-1,6-1.93S209.05,170.26,209.05,170.26Z" fill="#fff" stroke="#263238" stroke-linecap="round" stroke-linejoin="round" stroke-width="0.75"/>
        <path id="Path_51889" data-name="Path 51889" d="M216.37,170.45s-2.89-4-5.58-4-4.63,9.63-3.66,10.4,7.31-.19,7.7-.77a52.441,52.441,0,0,0,1.54-5.63Z" fill="#fff" stroke="#263238" stroke-linecap="round" stroke-linejoin="round" stroke-width="0.75"/>
        <path id="Path_51890" data-name="Path 51890" d="M222,177c0-1.15-.57-11.17-4-10.59s-7.12,8.67-6.93,10S222,177,222,177Z" fill="#fff" stroke="#263238" stroke-linecap="round" stroke-linejoin="round" stroke-width="0.75"/>
        <path id="Path_51891" data-name="Path 51891" d="M238.51,227.26s9.82,3.66,13.48,3.46" fill="#fff" stroke="#263238" stroke-linecap="round" stroke-linejoin="round" stroke-width="0.75"/>
        <path id="Path_51892" data-name="Path 51892" d="M157.76,389.39c10.46-1.76,23.86-8.95,27.85-18-3-15.69-6.79-37.79-6.79-51.31,0-22.72,6-35.62,3.27-51s-8.47-25.41-14.63-29.46c0,0-9.43,2.5-19.06,11.55s-18.1,24.61-21.4,39.44-7.7,60.46-7.7,72.4-.86,26.76-.86,26.76h34.59A26.46,26.46,0,0,0,157.76,389.39Z" fill="#fff"/>
        <g id="Group_8405" data-name="Group 8405" clip-path="url(#clip-path-3)">
          <path id="Path_51893" data-name="Path 51893" d="M185.61,371.38c-5.86,5-32.25,14.71-36.1,15.57s-1.71-7.28,4.28-15.41-7.28,3-9.42,3.85.86-15.84.86-24,7.71-77.48,7.71-77.48l14.55-26.55,5-3a21.48,21.48,0,0,0-5-4.79s-9.43,2.5-19.06,11.55S130.3,275.78,127,290.61s-7.7,60.46-7.7,72.4-.86,26.76-.86,26.76h34.59a26.461,26.461,0,0,0,4.71-.42C168.22,387.63,181.62,380.44,185.61,371.38Z" fill="#0f3295"/>
          <path id="Path_51894" data-name="Path 51894" d="M185.61,371.38c-5.86,5-32.25,14.71-36.1,15.57s-1.71-7.28,4.28-15.41-7.28,3-9.42,3.85.86-15.84.86-24,7.71-77.48,7.71-77.48l14.55-26.55,5-3a21.48,21.48,0,0,0-5-4.79s-9.43,2.5-19.06,11.55S130.3,275.78,127,290.61s-7.7,60.46-7.7,72.4-.86,26.76-.86,26.76h34.59a26.461,26.461,0,0,0,4.71-.42C168.22,387.63,181.62,380.44,185.61,371.38Z" fill="#fff" opacity="0.5"/>
        </g>
        <path id="Path_51896" data-name="Path 51896" d="M157.76,389.39c10.46-1.76,23.86-8.95,27.85-18-3-15.69-6.79-37.79-6.79-51.31,0-22.72,6-35.62,3.27-51s-8.47-25.41-14.63-29.46c0,0-9.43,2.5-19.06,11.55s-18.1,24.61-21.4,39.44-7.7,60.46-7.7,72.4-.86,26.76-.86,26.76h34.59A26.46,26.46,0,0,0,157.76,389.39Z" fill="none" stroke="#263238" stroke-linecap="round" stroke-linejoin="round" stroke-width="0.75"/>
        <path id="Path_51897" data-name="Path 51897" d="M166.9,243.16l16.54,30.12.89,16.52s4.61-11.78,2.56-19.47S166.9,243.16,166.9,243.16Z" fill="#263238" stroke="#263238" stroke-linecap="round" stroke-linejoin="round" stroke-width="0.75"/>
        <path id="Path_51898" data-name="Path 51898" d="M184.32,289.81l-4.61,69.71,5.13,14.35,3.59-28.71-3.08-57.41Z" fill="#263238" stroke="#263238" stroke-linecap="round" stroke-linejoin="round" stroke-width="0.75"/>
        <path id="Path_51899" data-name="Path 51899" d="M179.78,214.93s.58,7.51,1.16,11.17-8.47,13.9-8.47,13.9l13.09,19.83,14.83-11.55s21-1.54,22.91-3.28,1.93-20.79,1.93-20.79l5-2.89s-4.62-20-5.77-24.46l-1.16-4.42s6.74-2.32,5.2-9-11.36-10-21.18-8.48-12.32,5.2-12.32,5.2-13.87-.19-21.76,6.36-3.08,16.94-.58,20.6a57.229,57.229,0,0,0,7.12,7.81Z" fill="#fff"/>
        <g id="Group_8406" data-name="Group 8406" clip-path="url(#clip-path-4)">
          <path id="Path_51900" data-name="Path 51900" d="M203,241.83c-3.85-4.71,0-22.69,3-31.68s-4.28-12.84-4.28-12.84l21.86-3.77-.3-1.13a9.74,9.74,0,0,0,3.83-2.71l1.18-6.95c-2-6.32-11.47-9.36-21-7.87-9.82,1.54-12.32,5.2-12.32,5.2s-13.87-.19-21.76,6.36-3.08,16.94-.58,20.6a57.231,57.231,0,0,0,7.12,7.89s.58,7.51,1.16,11.17-8.44,13.9-8.44,13.9l13.09,19.83,14.83-11.55s16-1.18,21.36-2.63l1.55-.65S206.87,246.54,203,241.83Z" fill="#0f3295"/>
          <path id="Path_51901" data-name="Path 51901" d="M203,241.83c-3.85-4.71,0-22.69,3-31.68s-4.28-12.84-4.28-12.84l21.86-3.77-.3-1.13a9.74,9.74,0,0,0,3.83-2.71l1.18-6.95c-2-6.32-11.47-9.36-21-7.87-9.82,1.54-12.32,5.2-12.32,5.2s-13.87-.19-21.76,6.36-3.08,16.94-.58,20.6a57.231,57.231,0,0,0,7.12,7.89s.58,7.51,1.16,11.17-8.44,13.9-8.44,13.9l13.09,19.83,14.83-11.55s16-1.18,21.36-2.63l1.55-.65S206.87,246.54,203,241.83Z" fill="#fff" opacity="0.5"/>
          <path id="Path_51902" data-name="Path 51902" d="M214.25,206.08v-.77c0-1.49.25-4.71,2.74-5.59,3.27-1.15,6,1.93,6,1.93l.19,3.08a4.25,4.25,0,0,0-4-1.54A9,9,0,0,0,214.25,206.08Z" fill="#263238"/>
          <path id="Path_51903" data-name="Path 51903" d="M219.84,212.24c0,1.59-.44,2.89-1,2.89s-1-1.3-1-2.89.43-2.89,1-2.89S219.84,210.64,219.84,212.24Z" fill="#263238"/>
          <path id="Path_51904" data-name="Path 51904" d="M213.77,232.41c-1.07,1.11-2.5,1.47-3.19.81s-.38-2.11.69-3.22,2.49-1.47,3.18-.81S214.84,231.3,213.77,232.41Z" fill="#263238"/>
        </g>
        <path id="Path_51906" data-name="Path 51906" d="M179.78,214.93s.58,7.51,1.16,11.17-8.47,13.9-8.47,13.9l13.09,19.83,14.83-11.55s21-1.54,22.91-3.28,1.93-20.79,1.93-20.79l5-2.89s-4.62-20-5.77-24.46l-1.16-4.42s6.74-2.32,5.2-9-11.36-10-21.18-8.48-12.32,5.2-12.32,5.2-13.87-.19-21.76,6.36-3.08,16.94-.58,20.6a57.229,57.229,0,0,0,7.12,7.81Z" fill="none" stroke="#263238" stroke-linecap="round" stroke-linejoin="round" stroke-width="0.75"/>
        <path id="Path_51907" data-name="Path 51907" d="M198.27,196.06c3.47-2.31,25-3.65,25-3.65s6.74-2.32,5.2-9-11.36-10-21.18-8.48-12.32,5.2-12.32,5.2-13.87-.19-21.76,6.36-3.08,16.94-.58,20.6a57.229,57.229,0,0,0,7.12,7.89s.32,4.12.72,7.75l6,1.69,6.55-3.47,6.55-1.54s-4.82-3.66-2.12-7.12,7.7-4.62,7.89-7.32S194.8,198.37,198.27,196.06Z" fill="#263238" stroke="#263238" stroke-linecap="round" stroke-linejoin="round" stroke-width="0.75"/>
        <path id="Path_51908" data-name="Path 51908" d="M219.29,184.87s-2.26-4.14,1.88-3.39,4.14,7.91.75,9.41-21.83-1.88-32,1.13-17.31,11.29-17.31,11.29" fill="none" stroke="#fff" stroke-linecap="round" stroke-miterlimit="10" stroke-width="1"/>
        <path id="Path_51909" data-name="Path 51909" d="M178.26,209.71s7.91-6.77,14.3-7.9,9.79-1.13,2.64,3-2.26,3.38,2.26,1.88" fill="none" stroke="#fff" stroke-linecap="round" stroke-miterlimit="10" stroke-width="1"/>
        <path id="Path_51910" data-name="Path 51910" d="M194.8,224.56s-1.15-12.13-7.12-12.51-5.78,8.28-4,14.25,6,7.89,9.43,4.81" fill="#0f3295"/>
        <g id="Group_8407" data-name="Group 8407" clip-path="url(#clip-path-5)">
          <path id="Path_51911" data-name="Path 51911" d="M194.8,224.56s-1.15-12.13-7.12-12.51-5.78,8.28-4,14.25,6,7.89,9.43,4.81" fill="#fff" stroke="#263238" stroke-linecap="round" stroke-linejoin="round" stroke-width="0.75" opacity="0.5"/>
        </g>
        <path id="Path_51913" data-name="Path 51913" d="M194.8,224.56s-1.15-12.13-7.12-12.51-5.78,8.28-4,14.25,6,7.89,9.43,4.81" fill="none" stroke="#263238" stroke-linecap="round" stroke-linejoin="round" stroke-width="0.75"/>
        <path id="Path_51914" data-name="Path 51914" d="M173,232.65l19.26,29.27-8.86,11.36a223.779,223.779,0,0,0-13.28-22.34c-6.55-9.24-7.32-10.78-7.32-10.78Z" fill="#fff"/>
        <g id="Group_8408" data-name="Group 8408" clip-path="url(#clip-path-6)">
          <path id="Path_51915" data-name="Path 51915" d="M173,232.65l-10.2,7.51s.57,1.13,4.77,7.16l10.78-6.54Z" fill="#0f3295"/>
          <path id="Path_51916" data-name="Path 51916" d="M173,232.65l-10.2,7.51s.57,1.13,4.77,7.16l10.78-6.54Z" fill="#fff" opacity="0.5"/>
        </g>
        <path id="Path_51918" data-name="Path 51918" d="M173,232.65l19.26,29.27-8.86,11.36a223.779,223.779,0,0,0-13.28-22.34c-6.55-9.24-7.32-10.78-7.32-10.78Z" fill="none" stroke="#263238" stroke-linecap="round" stroke-linejoin="round" stroke-width="0.75"/>
        <path id="Path_51919" data-name="Path 51919" d="M222.53,305.44s3.08-6.36,3.66-10.4.77-6.36,3.08-8.28,9.82-9.63,11-12.52,1.92-.19,2.5,2.12.38,4.43-1.54,5.78a21.23,21.23,0,0,0-3.66,3.46l1.73,1.35s24.07-9.05,26.58-10,4.81-.2,5,1.73-.57,2.12-1.73,2.7-13.86,5-15.6,5.77l-1.73.77,1.35,1.35s6.93-.19,10.4-.38,8.66-.77,9.43.38a2.4,2.4,0,0,1-.58,3.27,3.72,3.72,0,0,1-3.08,1c-1.73,0-16.56,1.15-16.56,1.15l.39,2.12s15.79,2.5,16.36,3.27.58,1.16,0,2.31-1,1.16-2.5,1.16-14-1.93-14-1.93,6.16,3.47,6.93,4.05,3.46,1,2.69,2.31-1.15,1.73-2.31,1.54-9.43-3.85-9.43-3.85-8.28,1.15-11,1.35a37.727,37.727,0,0,1-6-.2l-7.7,5Z" fill="#fff" stroke="#263238" stroke-linecap="round" stroke-linejoin="round" stroke-width="0.75"/>
        <path id="Path_51920" data-name="Path 51920" d="M167.85,296.77s-5.59-23.3-7.9-28.5-15.4-10-21.76,1.35-.58,24.26,1.74,33.5,16.94,51,19.06,56.23,6,4,8.09,3.47,60.65-47.76,60.65-47.76l-4.62-10.39L177.67,328Z" fill="#fff"/>
        <g id="Group_8409" data-name="Group 8409" clip-path="url(#clip-path-7)">
          <path id="Path_51921" data-name="Path 51921" d="M166.21,348a139.731,139.731,0,0,1,5.13-13.27c2.14-4.28-10.27,9.85-12.84,2.14s-18.83-46.23-15.84-59.07a24.35,24.35,0,0,1,9.78-14.74c-4.77-1.13-10.61.07-14.25,6.57-6.35,11.36-.58,24.26,1.74,33.5s16.94,51,19.06,56.23,6,4,8.09,3.47c1.54-.42,33-25.55,50-39.18Z" fill="#0f3295"/>
          <path id="Path_51922" data-name="Path 51922" d="M166.21,348a139.731,139.731,0,0,1,5.13-13.27c2.14-4.28-10.27,9.85-12.84,2.14s-18.83-46.23-15.84-59.07a24.35,24.35,0,0,1,9.78-14.74c-4.77-1.13-10.61.07-14.25,6.57-6.35,11.36-.58,24.26,1.74,33.5s16.94,51,19.06,56.23,6,4,8.09,3.47c1.54-.42,33-25.55,50-39.18Z" fill="#fff" opacity="0.5"/>
        </g>
        <path id="Path_51924" data-name="Path 51924" d="M167.85,296.77s-5.59-23.3-7.9-28.5-15.4-10-21.76,1.35-.58,24.26,1.74,33.5,16.94,51,19.06,56.23,6,4,8.09,3.47,60.65-47.76,60.65-47.76l-4.62-10.39L177.67,328Z" fill="none" stroke="#263238" stroke-linecap="round" stroke-linejoin="round" stroke-width="0.75"/>
        <line id="Line_717" data-name="Line 717" x2="5.2" y2="10.59" transform="translate(216.37 308.52)" fill="#fff" stroke="#263238" stroke-linecap="round" stroke-linejoin="round" stroke-width="0.75"/>
        <path id="Path_51925" data-name="Path 51925" d="M94.22,255.39l-26.6,18.45s13.11,13.86,11.76,50.22c-1,27.77,2.67,59.3,8,65.71H115.7s-9.79-54-9.09-84.94C107.16,281.32,100.1,265,94.22,255.39Z" fill="#fff" stroke="#263238" stroke-linecap="round" stroke-linejoin="round" stroke-width="0.75"/>
        <path id="Path_51926" data-name="Path 51926" d="M97.42,255.39l-26.6,18.45s13.11,13.86,11.75,50.22c-1,27.77,2.67,59.3,8,65.71H118.9s-9.78-54-9.08-84.94C110.35,281.32,103.29,265,97.42,255.39Z" fill="#263238" stroke="#263238" stroke-linecap="round" stroke-linejoin="round" stroke-width="0.75"/>
        <path id="Path_51927" data-name="Path 51927" d="M94.22,255.39h3.2l-26.6,18.45H67.63Z" fill="#fff" stroke="#263238" stroke-linecap="round" stroke-linejoin="round" stroke-width="0.75"/>
      </g>
    </g>
  </g>
</svg>
